<?xml version="1.0" encoding="utf-8"?>
<!-- Generator: Adobe Illustrator 28.2.0, SVG Export Plug-In . SVG Version: 6.00 Build 0)  -->
<svg version="1.1" id="Layer_1" xmlns="http://www.w3.org/2000/svg" xmlns:xlink="http://www.w3.org/1999/xlink" x="0px" y="0px"
	 viewBox="0 0 66 67" style="enable-background:new 0 0 66 67;" xml:space="preserve">
<style type="text/css">
	.st0{fill:#4C4C4C;}
</style>
<g>
	<path class="st0" d="M33,61c-3.8,0-7.4-0.7-10.7-2.2c-3.3-1.4-6.3-3.4-8.7-5.9c-2.5-2.5-4.4-5.4-5.9-8.7c-1.4-3.3-2.2-6.9-2.2-10.7
		H11c0,5.3,1.7,9.9,5,14c3.3,4,7.6,6.6,12.8,7.6l-4-4l3.9-3.8l12.5,12.5c-1.3,0.5-2.7,0.8-4,1C35.7,60.9,34.4,61,33,61z M55,33.5
		c0-5.3-1.7-9.9-5-14c-3.3-4-7.6-6.6-12.8-7.6l4,4l-3.8,3.9L24.9,7.2c1.3-0.5,2.7-0.8,4-1C30.3,6.1,31.6,6,33,6
		c3.8,0,7.4,0.7,10.7,2.2c3.3,1.4,6.3,3.4,8.7,5.9c2.5,2.5,4.4,5.4,5.9,8.7c1.4,3.3,2.2,6.9,2.2,10.7H55z"/>
	<path class="st0" d="M28.9,43.9c-0.8,0-1.5-0.3-2.1-0.8s-0.8-1.2-0.8-2v-8.5c0-0.8,0.3-1.5,0.8-2c0.6-0.5,1.2-0.8,2.1-0.8V27
		c0-1.6,0.6-2.9,1.7-4s2.5-1.7,4.1-1.7c1.6,0,3,0.6,4.1,1.7s1.7,2.4,1.7,4v2.8c0.8,0,1.5,0.3,2.1,0.8s0.8,1.2,0.8,2v8.5
		c0,0.8-0.3,1.5-0.8,2c-0.6,0.5-1.2,0.8-2.1,0.8C40.5,43.9,28.9,43.9,28.9,43.9z M31.8,29.8h5.8V27c0-0.8-0.3-1.5-0.8-2
		c-0.6-0.5-1.2-0.8-2.1-0.8c-0.8,0-1.5,0.3-2.1,0.8s-0.8,1.2-0.8,2C31.8,27,31.8,29.8,31.8,29.8z"/>
</g>
</svg>
