<?xml version="1.0" encoding="utf-8"?>
<!-- Generator: Adobe Illustrator 28.2.0, SVG Export Plug-In . SVG Version: 6.00 Build 0)  -->
<svg version="1.1" id="Logo_x5F_Visa_x5F_CtP_x5F_white"
	 xmlns="http://www.w3.org/2000/svg" xmlns:xlink="http://www.w3.org/1999/xlink" x="0px" y="0px" viewBox="0 0 379 300"
	 style="enable-background:new 0 0 379 300;" xml:space="preserve">
<style type="text/css">
	.st0{fill:#4C4C4C;}
</style>
<path id="CtP_4_" class="st0" d="M357.3,143l-81.8-95.1c-1.9-2.8-4.8-4.7-8.4-4.7c-5.4,0-9.8,4.4-9.8,9.8c0,2.8,1.2,5.4,3.2,7.2
	l74.1,89.4l-73.3,87.7h-31.6l69.4-80.3c1.9-2.1,2.8-4.6,2.7-7c0-2.4-0.8-4.6-2.7-6.9c0,0-82.9-95-82.9-95c-2.4-2.9-4.9-4.8-8.4-4.8
	c-1.6,0-58.1,0-58.1,0c-5.4,0-9.8,4.4-9.8,9.8c0,1.6,0.2,3.3,1.1,4.5l77,92.8l-65.6,78.3c-0.4,0.4-6,8.4-16,8.4H57.5
	c-10.7,0-19.5-8.3-19.5-19.3V82c0-9.6,8.8-19.4,19.7-19.4H107c5.7,0,9.8-3.9,9.8-9.6c0-5.7-4.1-10-9.8-10l-49.7,0.2
	c-23.3,0-39,19.1-39,38.6v136c0,20.9,18.5,38.8,39,38.8h78.8l0,0c3.9,0,7.6-0.6,10.8-1.5c0.5-0.1,0.9-0.3,1.4-0.4
	c10.8-3.5,17.3-10.6,18.6-12.2l73.8-85.6c3.5-3.9,3.8-9.4,0.1-13.9l0,0l-70-80.3H203l73,87.3l-76.8,92.2c0,0,0,0.1,0.1,0.2
	c-0.7,1.4-1.1,2.9-1.1,4.6c0,5.4,4.4,9.8,9.8,9.8c0,0,56.5,0,58.1,0c3.6,0,6.7-1.9,8.5-4.8c0,0,0-0.1,0.1-0.1l82.7-94.7
	c0-0.1,0.1-0.1,0.1-0.1l0,0C361.3,152.7,360.8,146.9,357.3,143z"/>
</svg>
