<?xml version="1.0" encoding="utf-8"?>
<!-- Generator: Adobe Illustrator 21.0.2, SVG Export Plug-In . SVG Version: 6.00 Build 0)  -->
<svg version="1.1" id="Ebene_1" xmlns="http://www.w3.org/2000/svg" xmlns:xlink="http://www.w3.org/1999/xlink" x="0px" y="0px"
	 viewBox="0 0 34 28" style="enable-background:new 0 0 34 28;" xml:space="preserve">
<style type="text/css">
	.st0{fill:#4C4C4C;}
</style>
<title>icon</title>
<path class="st0" d="M17,27c-0.2,0-0.5-0.1-0.6-0.2c-4.5-3.6-7.2-7-8.8-10.8S5.7,7.8,6.3,2c0.1-0.5,0.5-1,1.1-0.9
	c0.1,0,0.2,0,0.3,0.1c3.4,1.6,6.5,1.6,8.7,0c0.4-0.3,0.8-0.3,1.2,0c2.2,1.6,5.3,1.6,8.7,0c0.5-0.2,1.1,0,1.3,0.5
	c0,0.1,0.1,0.2,0.1,0.3c0.5,5.8,0.1,10.2-1.4,13.9c-1.5,3.8-4.3,7.3-8.7,10.9C17.5,27,17.2,27,17,27z M8.2,3.6
	c-0.4,4.8,0,8.5,1.3,11.6c1.3,3.3,3.7,6.3,7.5,9.5c3.8-3.1,6.2-6.2,7.5-9.5c1.2-3.1,1.6-6.8,1.3-11.6c-3.3,1.2-6.4,1.1-8.8-0.4
	C14.6,4.7,11.5,4.8,8.2,3.6z M21.5,7.8c-0.3,0-0.5,0.1-0.7,0.3l-5.3,5.3l-2.3-2.3c-0.7-0.8-2.2,0.7-1.4,1.4l3,3c0.4,0.4,1,0.4,1.4,0
	c0,0,0,0,0,0l6-6c0.4-0.5,0.3-1.1-0.2-1.5C21.9,7.9,21.7,7.9,21.5,7.8z"/>
</svg>
