<?xml version="1.0" encoding="utf-8"?>
<!-- Generator: Adobe Illustrator 28.2.0, SVG Export Plug-In . SVG Version: 6.00 Build 0)  -->
<svg version="1.1" id="Ebene_1" xmlns="http://www.w3.org/2000/svg" xmlns:xlink="http://www.w3.org/1999/xlink" x="0px" y="0px"
	 viewBox="0 0 34 28" style="enable-background:new 0 0 34 28;" xml:space="preserve">
<style type="text/css">
	.st0{fill:#4C4C4C;}
</style>
<g>
	<path class="st0" d="M22.2,14c-0.3-0.2-0.6-0.1-0.8,0.1c-1.2,1.1-2.8,1.7-4.4,1.7s-3.2-0.6-4.4-1.7c-0.1-0.1-0.3-0.2-0.4-0.2
		c-0.1,0-0.3,0-0.4,0.1c-3,1.8-4.9,5.2-4.9,8.7c0,0.2,0,0.4,0,0.6c0,0.4,0.3,0.7,0.7,0.7h18.8c0.4,0,0.7-0.3,0.7-0.7
		c0-0.2,0-0.4,0-0.6C27.1,19.1,25.2,15.8,22.2,14z M8.2,22.5c0-2.9,1.5-5.5,3.8-7.1c1.4,1.1,3.1,1.7,4.9,1.7s3.5-0.6,4.9-1.7
		c2.4,1.6,3.8,4.2,3.8,7.1H8.2z"/>
	<path class="st0" d="M16.9,14.7c2.9,0,5.3-2.4,5.3-5.3s-2.4-5.3-5.3-5.3s-5.3,2.4-5.3,5.3S14,14.7,16.9,14.7z M13,9.4
		c0-2.2,1.8-3.9,3.9-3.9c2.2,0,3.9,1.8,3.9,3.9s-1.8,3.9-3.9,3.9C14.7,13.3,13,11.5,13,9.4z"/>
</g>
</svg>
