<?xml version="1.0" encoding="utf-8"?>
<!-- Generator: Adobe Illustrator 28.2.0, SVG Export Plug-In . SVG Version: 6.00 Build 0)  -->
<svg version="1.1" id="Ebene_1" xmlns="http://www.w3.org/2000/svg" xmlns:xlink="http://www.w3.org/1999/xlink" x="0px" y="0px"
	 viewBox="0 0 34 28" style="enable-background:new 0 0 34 28;" xml:space="preserve">
<style type="text/css">
	.st0{fill:#4C4C4C;}
</style>
<path class="st0" d="M16.9,0.6H6.1C5,0.6,4.2,1.4,4.2,2.5v23c0,1.1,0.9,1.9,1.9,1.9h10.8c1.1,0,1.9-0.9,1.9-1.9v-23
	C18.8,1.4,17.9,0.6,16.9,0.6z M10.1,2.4H13c0.3,0,0.5,0.2,0.5,0.5S13.3,3.4,13,3.4h-2.9c-0.3,0-0.5-0.2-0.5-0.5S9.8,2.4,10.1,2.4z
	 M11.5,26.6c-0.8,0-1.4-0.6-1.4-1.4s0.6-1.4,1.4-1.4s1.4,0.6,1.4,1.4S12.3,26.6,11.5,26.6z M17.7,22.8H5.3V5h12.4V22.8z"/>
<path class="st0" d="M27.5,15.3c-0.2-0.1-0.4-0.3-0.4-0.5c0-0.1,0-0.3,0.2-0.7c0.9-1.7,1.2-3.2,1.2-5s-0.3-3.2-1.1-4.8
	C27.2,3.8,27,3.5,27,3.5c0-0.2,0.1-0.4,0.3-0.5c0.2-0.1,0.6-0.1,0.8,0.1c0.1,0.1,0.2,0.4,0.4,0.6c0.6,1.2,1,2.4,1.2,3.7
	c0.1,0.8,0.1,2.4,0,3.1c-0.2,1.4-0.5,2.6-1.1,3.8c-0.4,0.7-0.6,1-0.8,1h-0.1C27.7,15.3,27.6,15.3,27.5,15.3L27.5,15.3z"/>
<path class="st0" d="M25.1,14c-0.3-0.1-0.5-0.5-0.4-0.7c0-0.1,0.2-0.4,0.3-0.7c0.7-1.3,0.9-2.8,0.8-4.2c-0.1-1.2-0.3-1.9-0.8-3
	c-0.4-0.7-0.4-0.8-0.2-1.1C25,4,25.5,4,25.7,4.2s0.7,1.3,0.9,2c0.7,2.1,0.6,4.4-0.3,6.6C25.9,13.8,25.6,14.2,25.1,14z"/>
<path class="st0" d="M22.7,12.8c-0.2-0.1-0.4-0.3-0.4-0.5c0-0.1,0-0.3,0.2-0.7c0.8-1.7,0.8-3.3,0-4.9c-0.4-0.7-0.4-0.9-0.1-1.1
	c0.1-0.1,0.2-0.2,0.4-0.2c0.3,0,0.5,0.2,0.8,0.8c0.5,1,0.7,1.8,0.7,2.9S24.1,11,23.6,12c-0.3,0.6-0.4,0.8-0.7,0.8
	C22.9,12.8,22.8,12.8,22.7,12.8L22.7,12.8z"/>
<path class="st0" d="M20.4,11.6c-0.2-0.1-0.3-0.3-0.4-0.4c-0.1-0.2,0-0.4,0.2-0.7c0.3-0.5,0.4-0.7,0.4-1.4c0-0.6-0.1-0.9-0.4-1.4
	C20.1,7.5,20,7.3,20,7.3c-0.1-0.3,0.2-0.7,0.5-0.8C20.8,6.4,21,6.6,21.3,7c0.8,1.2,0.8,2.9,0,4.1C21,11.6,20.7,11.7,20.4,11.6
	L20.4,11.6z"/>
</svg>
