<?xml version="1.0" encoding="utf-8"?>
<!-- Generator: Adobe Illustrator 21.0.2, SVG Export Plug-In . SVG Version: 6.00 Build 0)  -->
<svg version="1.1" id="Ebene_1" xmlns="http://www.w3.org/2000/svg" xmlns:xlink="http://www.w3.org/1999/xlink" x="0px" y="0px"
	 viewBox="0 0 34 28" style="enable-background:new 0 0 34 28;" xml:space="preserve">
<style type="text/css">
	.st0{fill:#4C4C4C;}
</style>
<title>icon</title>
<path class="st0" d="M31.2,15.8l-7,7c-0.5,0.4-1.2,0.4-1.7,0L19,19.3c-0.9-0.9,0.8-2.6,1.7-1.7l2.7,2.7l6.2-6.2
	c0.2-0.2,0.5-0.3,0.8-0.4c0.7,0.1,1.2,0.7,1.1,1.3C31.5,15.4,31.4,15.6,31.2,15.8z M19.2,23.2H7.5c-4.6,0-5-1.1-5-5.6v-7.1
	c0-2.3,0-3.6,0.8-4.6s2.3-1.1,4.3-1.1h15.2c1.9,0,3.4,0,4.3,1.1S28,8.1,28,10.4v3.2l-1.5,1.5v-2.3H4v4.7c0,3.9,0,4.1,3.5,4.1h10.2
	L19.2,23.2z M4,9h22.5c0.1-0.7-0.1-1.5-0.4-2.1c-0.4-0.5-1.3-0.6-3.2-0.6H7.7c-1.8,0-2.8,0-3.2,0.6C4.1,7.5,3.9,8.3,4,9z"/>
</svg>
