<?xml version="1.0" encoding="utf-8"?>
<!-- Generator: Adobe Illustrator 21.0.2, SVG Export Plug-In . SVG Version: 6.00 Build 0)  -->
<svg version="1.1" id="Ebene_1" xmlns="http://www.w3.org/2000/svg" xmlns:xlink="http://www.w3.org/1999/xlink" x="0px" y="0px"
	 viewBox="0 0 34 28" style="enable-background:new 0 0 34 28;" xml:space="preserve">
<style type="text/css">
	.st0{fill:#4C4C4C;}
</style>
<title>icon</title>
<path class="st0" d="M14.6,12.2l1.5,1.5V4.7c0.1-0.5,0.5-0.8,0.9-0.8c0.4,0,0.7,0.4,0.8,0.8v8.9l1.5-1.5c0.3-0.4,0.8-0.4,1.2-0.1
	c0.4,0.3,0.4,0.8,0.1,1.2c0,0,0,0-0.1,0.1l-2.9,2.9l0,0c-0.3,0.3-0.9,0.3-1.2,0l-2.9-2.9c-0.3-0.4-0.2-0.9,0.2-1.2
	C13.9,12,14.3,12,14.6,12.2z M25.8,3.9h-5.9v1.7h4.6c0.5,0,0.9,0.4,0.9,0.8c0,0,0,0,0,0v15.1c0,0.5-0.4,0.9-0.9,0.9l0,0H9.4
	c-0.5,0-0.9-0.4-0.9-0.9l0,0V6.4c0-0.5,0.4-0.8,0.9-0.8l0,0H14V3.9H8.2c-0.7,0-1.3,0.5-1.3,1.2c0,0,0,0,0,0v17.7
	c0,0.7,0.5,1.3,1.2,1.3c0,0,0,0,0,0h17.7c0.7,0,1.3-0.5,1.3-1.2c0,0,0,0,0,0V5.2C27.1,4.5,26.5,3.9,25.8,3.9z"/>
</svg>
