<svg id="Logo" xmlns="http://www.w3.org/2000/svg" viewBox="0 0 300 114.68"><defs><style>.cls-1{fill:#4c4c4c;}</style></defs><title>Viseca_One_Logo_300px_grau</title><path class="cls-1" d="M7,39.35a41.52,41.52,0,0,1,24.18-24.7,51.7,51.7,0,0,1,19.28-3.42,52.42,52.42,0,0,1,19.36,3.42A41.29,41.29,0,0,1,94,39.35a55.6,55.6,0,0,1,3.33,19.71A54.88,54.88,0,0,1,94,78.69a42.58,42.58,0,0,1-9.46,15,41.21,41.21,0,0,1-14.8,9.55,53.9,53.9,0,0,1-19.36,3.33,53.15,53.15,0,0,1-19.28-3.33,41.28,41.28,0,0,1-14.71-9.55A42.6,42.6,0,0,1,7,78.69,54.88,54.88,0,0,1,3.64,59.06,55.6,55.6,0,0,1,7,39.35ZM29.57,69.66A28,28,0,0,0,33.16,79a19,19,0,0,0,6.74,6.57A20.58,20.58,0,0,0,50.42,88,21.07,21.07,0,0,0,61,85.52,18.88,18.88,0,0,0,67.85,79a28.24,28.24,0,0,0,3.59-9.29,53,53,0,0,0,1-10.6,54.32,54.32,0,0,0-1-10.68,27.33,27.33,0,0,0-3.59-9.29A19.92,19.92,0,0,0,61,32.52,20.57,20.57,0,0,0,50.42,30a19.12,19.12,0,0,0-17.26,9.11,27.12,27.12,0,0,0-3.59,9.29,54.32,54.32,0,0,0-1.05,10.68A53,53,0,0,0,29.57,69.66Z"/><path class="cls-1" d="M133.64,13.68V26.3h.52a28.63,28.63,0,0,1,12.27-11.48,35.51,35.51,0,0,1,15.42-3.59q10,0,16.38,2.72a24.28,24.28,0,0,1,10.07,7.53,29.1,29.1,0,0,1,5.17,11.74A73.21,73.21,0,0,1,195,48.55v55.72H170.08V53.11q0-11.22-3.5-16.74t-12.44-5.51q-10.17,0-14.72,6t-4.55,19.89v47.48H110V13.68Z"/><path class="cls-1" d="M237,82.54Q242.62,88,253.13,88a22.23,22.23,0,0,0,13-3.76q5.41-3.76,6.65-8h21.9q-5.25,16.3-16.12,23.31t-26.28,7A51.68,51.68,0,0,1,233,103.13a40.16,40.16,0,0,1-14.54-9.72,43.84,43.84,0,0,1-9.2-15.07A55.21,55.21,0,0,1,206,59.06a52.82,52.82,0,0,1,3.33-18.92,43.83,43.83,0,0,1,24.09-25.23,46.93,46.93,0,0,1,18.83-3.68A43,43,0,0,1,272.4,15.7a40.31,40.31,0,0,1,14.11,12,49.48,49.48,0,0,1,8,17.17A64,64,0,0,1,296.23,65H230.88Q231.4,77.11,237,82.54Zm28.12-47.65Q260.66,30,251.55,30a21.7,21.7,0,0,0-9.9,2,18.87,18.87,0,0,0-6.3,5A18.24,18.24,0,0,0,232,43.3a27.63,27.63,0,0,0-1.14,6h40.47Q269.6,39.78,265.13,34.89Z"/></svg>