<?xml version="1.0" encoding="utf-8"?>
<!-- Generator: Adobe Illustrator 21.0.2, SVG Export Plug-In . SVG Version: 6.00 Build 0)  -->
<svg version="1.1" id="Ebene_1" xmlns="http://www.w3.org/2000/svg" xmlns:xlink="http://www.w3.org/1999/xlink" x="0px" y="0px"
	 viewBox="0 0 34 28" style="enable-background:new 0 0 34 28;" xml:space="preserve">
<style type="text/css">
	.st0{fill:#4C4C4C;}
</style>
<title>icon</title>
<path class="st0" d="M10.5,14.6h13V13h-13V14.6z M10.5,17.8h13v-1.6h-13V17.8z M10.5,21.1h13v-1.6h-13V21.1z M26.3,8.2l-5.8-5.7
	c-0.2-0.2-0.4-0.2-0.6-0.2h-9.9C8.8,2.2,7.4,3,7.4,4.4V23c0.1,1.4,1.3,2.6,2.7,2.7h14.2c1.4,0,2.2-1.4,2.2-2.7V8.8
	C26.6,8.6,26.5,8.4,26.3,8.2z M21.6,9.9H25V23c0.1,0.5-0.2,0.9-0.6,1.1H10.1C9.6,24,9.1,23.6,9,23V4.4C9.2,4,9.7,3.8,10.1,3.8h8.8
	v3.3C19,8.6,20.2,9.8,21.6,9.9z M21.6,8.3c-0.6-0.1-1-0.6-1.1-1.1V4.7l3.6,3.6H21.6z"/>
</svg>
