<?xml version="1.0" encoding="utf-8"?>
<!-- Generator: Adobe Illustrator 21.0.2, SVG Export Plug-In . SVG Version: 6.00 Build 0)  -->
<svg version="1.1" id="Ebene_1" xmlns="http://www.w3.org/2000/svg" xmlns:xlink="http://www.w3.org/1999/xlink" x="0px" y="0px"
	 viewBox="0 0 34 28" style="enable-background:new 0 0 34 28;" xml:space="preserve">
<style type="text/css">
	.st0{fill:#4C4C4C;}
</style>
<title>icon</title>
<path class="st0" d="M26.8,11.1h-9.5c-1.3,0-2.4,1-2.5,2.4v9c0.1,1.3,1.2,2.4,2.5,2.4h2.8l1.4,1.8c0.3,0.3,0.7,0.4,1.1,0.2
	c0.1,0,0.1-0.1,0.2-0.2l1.4-1.8h2.8c1.2,0,2.2-1,2.2-2.3c0,0,0-0.1,0-0.1v-9c0.1-1.2-0.9-2.3-2.1-2.4C26.9,11.1,26.9,11.1,26.8,11.1
	z M27.5,13.5v9c0.1,0.4-0.2,0.7-0.6,0.8c0,0,0,0-0.1,0h-3.2c-0.2,0-0.5,0.1-0.6,0.3l-1,1.3l-1-1.3c-0.1-0.2-0.4-0.3-0.6-0.3h-3.1
	c-0.5,0-0.9-0.3-0.9-0.8v-9c0.1-0.5,0.5-0.8,0.9-0.8h9.5C27.2,12.7,27.5,13,27.5,13.5C27.5,13.4,27.5,13.4,27.5,13.5z M13.9,16.6
	c0,0.4-0.3,0.8-0.8,0.8c0,0,0,0,0,0c-4.5,0-8.2-3.7-8.2-8.2s3.7-8.2,8.2-8.2s8.2,3.7,8.2,8.2l0,0c0,0.4-0.3,0.8-0.8,0.8
	s-0.8-0.3-0.8-0.8c0,0,0,0,0,0c0-3.7-3-6.6-6.6-6.6c-3.7,0-6.6,3-6.6,6.6c0,3.7,3,6.6,6.6,6.6C13.5,15.9,13.9,16.2,13.9,16.6z
	 M13.8,13.7h-1.6v-1.5h1.6V13.7L13.8,13.7z M25.3,14.4l1.2,1l-4.4,5.5c-0.1,0.2-0.3,0.3-0.6,0.3l0,0c-0.2,0-0.4-0.1-0.6-0.2
	l-2.8-2.8l1.1-1.1l2.2,2.2L25.3,14.4z M14.6,9.8L14.4,10c-0.3,0.2-0.6,0.5-0.7,0.9v0.8h-1.6v-0.8c0.1-0.9,0.5-1.6,1.3-2.1l0.1-0.1
	C14,8.5,14.4,8,14.4,7.4c0-0.6-0.5-1.1-1.1-1.1c-0.1,0-0.1,0-0.2,0c-0.7,0-1.3,0.6-1.3,1.3c0,0,0,0,0,0.1V8l-1.6-0.1V7.6
	c0-1.6,1.3-2.8,2.9-2.8c1.4-0.2,2.7,0.9,2.9,2.3c0,0.1,0,0.2,0,0.3C16,8.4,15.4,9.3,14.6,9.8z"/>
</svg>
