<?xml version="1.0" encoding="utf-8"?>
<!-- Generator: Adobe Illustrator 21.0.2, SVG Export Plug-In . SVG Version: 6.00 Build 0)  -->
<svg version="1.1" id="Ebene_1" xmlns="http://www.w3.org/2000/svg" xmlns:xlink="http://www.w3.org/1999/xlink" x="0px" y="0px"
	 viewBox="0 0 34 28" style="enable-background:new 0 0 34 28;" xml:space="preserve">
<style type="text/css">
	.st0{fill:#4C4C4C;}
</style>
<title>icon</title>
<path class="st0" d="M9.6,20h14.8v1.6H9.6V20z M9.6,17.6h14.8V16H9.6V17.6z M9.6,13.6h14.8V12H9.6V13.6z M28.3,12v10
	c0,2.1-1.7,3.8-3.8,3.8h-15c-2.1,0-3.8-1.7-3.8-3.8V12c0-2.1,1.7-3.8,3.8-3.8l0,0h1.8V5.7c0-1.6,1.3-2.9,2.9-2.9h5.8
	c1.6,0,2.9,1.3,2.9,2.9v2.5h1.7C26.6,8.2,28.3,9.9,28.3,12C28.3,12,28.3,12,28.3,12z M12.7,8.2h8.6V5.7c0-0.8-0.6-1.4-1.4-1.4l0,0
	h-5.8c-0.8,0-1.4,0.6-1.4,1.4V8.2z M26.7,12c0-1.2-1-2.2-2.2-2.2l0,0h-15c-1.2,0-2.2,1-2.2,2.2c0,0,0,0,0,0v10c0,1.2,1,2.2,2.2,2.2
	c0,0,0,0,0,0h15c1.2,0,2.2-1,2.2-2.2v0L26.7,12L26.7,12z"/>
</svg>
