<?xml version="1.0" encoding="utf-8"?>
<!-- Generator: Adobe Illustrator 21.0.2, SVG Export Plug-In . SVG Version: 6.00 Build 0)  -->
<svg version="1.1" id="Ebene_1" xmlns="http://www.w3.org/2000/svg" xmlns:xlink="http://www.w3.org/1999/xlink" x="0px" y="0px"
	 viewBox="0 0 34 28" style="enable-background:new 0 0 34 28;" xml:space="preserve">
<style type="text/css">
	.st0{fill:#4C4C4C;}
</style>
<title>icon</title>
<path class="st0" d="M30.5,6.4c0-2.1-1.1-3.2-2.4-3.2h-9.5c-0.6,0-2.6-0.1-3.2-0.1H5.9c-1.3,0-2.4,1.1-2.4,3.2v16.9
	c0.4,1,1.3,1.6,2.4,1.5h22.2c1.3,0,2.4-1.1,2.3-1.5L30.5,6.4z M17.8,4.8h10.4c0.4,0,0.8,0.3,0.8,0.8c0,0,0,0,0,0v7.5L21.7,13
	c0.3-0.3,0.5-0.6,0.7-0.9C23,11,22.6,9.6,21.6,9c-0.6-0.6-1.6-0.8-2.4-0.5c-0.6,0.3-1.1,0.8-1.3,1.5L17.8,4.8z M16.1,15.1
	c-0.1,0.9-0.4,1.7-1,2.4c-0.3,0.1-0.5,0.1-0.8,0c-0.3-0.2-0.3-0.6-0.1-0.9C14.6,15.8,15.3,15.3,16.1,15.1z M18.4,13.1
	c0.3-1.4,0.7-2.8,1.3-3.1c0.1,0,0.1,0,0.2,0c0.2,0,0.5,0.1,0.7,0.3c0.7,0.5,0.5,0.9,0.5,1c-0.5,0.8-1.3,1.4-2.2,1.8L18.4,13.1
	L18.4,13.1z M5.1,5.5c0-0.4,0.4-0.8,0.8-0.8l10.3,0.1v7.2c-0.2-0.2-0.3-0.5-0.4-0.7c-0.5-1.1-1.6-1.8-2.8-1.8
	c-0.4,0-0.7,0.4-0.7,0.9c0,0.4,0.3,0.6,0.7,0.7c0.5,0,1,0.3,1.3,0.8c0.2,0.4,0.4,0.9,0.7,1.2H5.1V5.5z M16.3,23.2H5.9
	c-0.4,0-0.8-0.3-0.8-0.8c0,0,0,0,0,0v-7.7h8.5c-0.3,0.3-0.6,0.6-0.8,1c-0.6,1-0.3,2.3,0.6,3c0.5,0.3,1.1,0.4,1.7,0.3
	c0.2,0,0.5-0.1,0.7-0.2c0.2-0.1,0.5-0.2,0.6-0.4L16.3,23.2z M17.8,23.1v-7.3l0.1,0.2c0.5,0.9,1.4,1.5,2.5,1.4c0.2,0,0.3,0,0.5-0.1
	c0.4,0,0.8-0.4,0.7-0.9c0-0.4-0.4-0.8-0.9-0.7c0,0-0.1,0-0.1,0c-0.5,0.1-1-0.1-1.3-0.6c-0.1-0.2-0.2-0.4-0.4-0.6l0.2-0.1h9.8v7.8
	c0,0.4-0.3,0.8-0.8,0.8h0L17.8,23.1z"/>
</svg>
